<svg xmlns="http://www.w3.org/2000/svg" viewBox="0 0 24 24" fill="none">
  <path d="M7.508 0c-.287 0-.573.06-.84.179L.842 2.968c-.535.238-.842.78-.842 1.356v15.351c0 .576.307 1.118.842 1.356l5.826 2.789c.267.119.553.179.84.179.287 0 .573-.06.84-.179l5.826-2.789c.535-.238.842-.78.842-1.356V4.324c0-.576-.307-1.118-.842-1.356L8.348.179C8.081.06 7.795 0 7.508 0z" fill="#FA7343"/>
  <path d="M18.171 8.132c-1.267-1.572-3.307-2.511-5.663-2.511-2.356 0-4.396.939-5.663 2.511-1.267 1.572-1.267 4.132 0 5.704 1.267 1.572 3.307 2.511 5.663 2.511 2.356 0 4.396-.939 5.663-2.511 1.267-1.572 1.267-4.132 0-5.704z" fill="#FFFFFF"/>
</svg>