<svg width="400" height="300" viewBox="0 0 400 300" fill="none" xmlns="http://www.w3.org/2000/svg">
<rect width="400" height="300" fill="#0F172A"/>
<rect x="150" y="50" width="100" height="180" rx="15" fill="#1E293B" stroke="#334155" stroke-width="2"/>
<rect x="160" y="70" width="80" height="120" fill="#0F172A"/>
<circle cx="200" cy="210" r="8" fill="#6366F1"/>
<rect x="190" y="55" width="20" height="4" rx="2" fill="#64748B"/>
<rect x="170" y="80" width="60" height="8" rx="4" fill="#6366F1"/>
<rect x="170" y="95" width="40" height="6" rx="3" fill="#64748B"/>
<rect x="170" y="110" width="50" height="6" rx="3" fill="#64748B"/>
<rect x="170" y="125" width="35" height="6" rx="3" fill="#64748B"/>
<rect x="170" y="145" width="60" height="20" rx="10" fill="#10B981"/>
<rect x="170" y="175" width="25" height="4" rx="2" fill="#64748B"/>
<rect x="200" y="175" width="25" height="4" rx="2" fill="#64748B"/>
<text x="200" y="270" font-family="Arial, sans-serif" font-size="16" font-weight="bold" fill="white" text-anchor="middle">Mobile App Development</text>
<text x="200" y="285" font-family="Arial, sans-serif" font-size="12" fill="#94A3AF" text-anchor="middle">Flutter • React Native • Kotlin • Swift</text>
</svg>